<svg xmlns="http://www.w3.org/2000/svg" viewBox="0 0 1000 560" role="img" aria-label="Answer loss rate by condition">
<style>text{font-family:Arial,sans-serif;fill:#263238} .muted{fill:#607d8b;font-size:14px} .grid{stroke:#cfd8dc;stroke-width:1} .axis{stroke:#455a64;stroke-width:2}</style>
<text x="60" y="42" font-size="24" font-weight="bold">Answer loss rate by condition</text>
<line class="grid" x1="100" y1="470.0" x2="930" y2="470.0"/>
<text class="muted" x="62" y="475.0">0.0</text>
<line class="grid" x1="100" y1="392.0" x2="930" y2="392.0"/>
<text class="muted" x="62" y="397.0">0.2</text>
<line class="grid" x1="100" y1="314.0" x2="930" y2="314.0"/>
<text class="muted" x="62" y="319.0">0.4</text>
<line class="grid" x1="100" y1="236.0" x2="930" y2="236.0"/>
<text class="muted" x="62" y="241.0">0.6</text>
<line class="grid" x1="100" y1="158.0" x2="930" y2="158.0"/>
<text class="muted" x="62" y="163.0">0.8</text>
<line class="grid" x1="100" y1="80.0" x2="930" y2="80.0"/>
<text class="muted" x="62" y="85.0">1.0</text>
<line class="axis" x1="100" y1="470" x2="930" y2="470"/>
<rect x="136.5" y="380.3" width="93.0" height="89.7" fill="#264653"/>
<line x1="183.0" y1="361.2" x2="183.0" y2="399.3" stroke="#111" stroke-width="3"/>
<line x1="175.0" y1="361.2" x2="191.0" y2="361.2" stroke="#111" stroke-width="2"/>
<line x1="175.0" y1="399.3" x2="191.0" y2="399.3" stroke="#111" stroke-width="2"/>
<text class="muted" text-anchor="middle" x="183.0" y="498" transform="rotate(-18 183.0 498)">independent</text>
<rect x="302.5" y="373.0" width="93.0" height="97.0" fill="#2a9d8f"/>
<line x1="349.0" y1="349.1" x2="349.0" y2="397.0" stroke="#111" stroke-width="3"/>
<line x1="341.0" y1="349.1" x2="357.0" y2="349.1" stroke="#111" stroke-width="2"/>
<line x1="341.0" y1="397.0" x2="357.0" y2="397.0" stroke="#111" stroke-width="2"/>
<text class="muted" text-anchor="middle" x="349.0" y="498" transform="rotate(-18 349.0 498)">full context debate</text>
<rect x="468.5" y="386.6" width="93.0" height="83.4" fill="#e9c46a"/>
<line x1="515.0" y1="365.0" x2="515.0" y2="408.1" stroke="#111" stroke-width="3"/>
<line x1="507.0" y1="365.0" x2="523.0" y2="365.0" stroke="#111" stroke-width="2"/>
<line x1="507.0" y1="408.1" x2="523.0" y2="408.1" stroke="#111" stroke-width="2"/>
<text class="muted" text-anchor="middle" x="515.0" y="498" transform="rotate(-18 515.0 498)">answer hidden debate</text>
<rect x="634.5" y="357.3" width="93.0" height="112.7" fill="#f4a261"/>
<line x1="681.0" y1="330.9" x2="681.0" y2="383.7" stroke="#111" stroke-width="3"/>
<line x1="673.0" y1="330.9" x2="689.0" y2="330.9" stroke="#111" stroke-width="2"/>
<line x1="673.0" y1="383.7" x2="689.0" y2="383.7" stroke="#111" stroke-width="2"/>
<text class="muted" text-anchor="middle" x="681.0" y="498" transform="rotate(-18 681.0 498)">numeric masked debate</text>
<rect x="800.5" y="358.8" width="93.0" height="111.2" fill="#e76f51"/>
<line x1="847.0" y1="332.4" x2="847.0" y2="385.2" stroke="#111" stroke-width="3"/>
<line x1="839.0" y1="332.4" x2="855.0" y2="332.4" stroke="#111" stroke-width="2"/>
<line x1="839.0" y1="385.2" x2="855.0" y2="385.2" stroke="#111" stroke-width="2"/>
<text class="muted" text-anchor="middle" x="847.0" y="498" transform="rotate(-18 847.0 498)">commit then numeric masked debate</text>
<text class="muted" x="60" y="535">Bars: mean across 20 repeats; whiskers: 95% exploratory CI.</text>
</svg>
